<svg width="358" height="230" viewBox="0 0 358 230" fill="none" xmlns="http://www.w3.org/2000/svg">
<rect opacity="0.3" width="358" height="230" rx="8" fill="#E6E6E6"/>
<path opacity="0.3" d="M183 107C178.587 107 175 110.587 175 115C175 119.413 178.587 123 183 123C187.413 123 191 119.413 191 115C191 110.587 187.413 107 183 107Z" fill="#F14F68"/>
<path d="M183 104.333C177.106 104.333 172.333 109.107 172.333 115C172.333 120.893 177.106 125.667 183 125.667C188.893 125.667 193.666 120.893 193.666 115C193.666 109.107 188.893 104.333 183 104.333ZM183 123C178.586 123 175 119.413 175 115C175 110.587 178.586 107 183 107C187.413 107 191 110.587 191 115C191 119.413 187.413 123 183 123ZM167 115C167 111.52 169.226 108.56 172.333 107.467V104.68C167.733 105.867 164.333 110.027 164.333 115C164.333 119.973 167.733 124.133 172.333 125.32V122.533C169.226 121.44 167 118.48 167 115V115Z" fill="#F14F68"/>
</svg>
