<svg width="358" height="230" viewBox="0 0 358 230" fill="none" xmlns="http://www.w3.org/2000/svg">
<rect opacity="0.3" width="358" height="230" rx="8" fill="#E6E6E6"/>
<path d="M169 115C170.841 115 172.334 113.508 172.334 111.667C172.334 109.826 170.841 108.333 169 108.333C167.159 108.333 165.667 109.826 165.667 111.667C165.667 113.508 167.159 115 169 115Z" fill="#F5C5CC"/>
<path d="M175 109.667C176.841 109.667 178.334 108.174 178.334 106.333C178.334 104.492 176.841 103 175 103C173.159 103 171.667 104.492 171.667 106.333C171.667 108.174 173.159 109.667 175 109.667Z" fill="#F5C5CC"/>
<path d="M183 109.667C184.841 109.667 186.334 108.174 186.334 106.333C186.334 104.492 184.841 103 183 103C181.159 103 179.667 104.492 179.667 106.333C179.667 108.174 181.159 109.667 183 109.667Z" fill="#F5C5CC"/>
<path d="M189 115C190.841 115 192.334 113.508 192.334 111.667C192.334 109.826 190.841 108.333 189 108.333C187.159 108.333 185.667 109.826 185.667 111.667C185.667 113.508 187.159 115 189 115Z" fill="#F5C5CC"/>
<path d="M186.12 118.813C184.96 117.453 183.986 116.293 182.813 114.933C182.2 114.213 181.413 113.493 180.48 113.173C180.333 113.12 180.186 113.08 180.04 113.053C179.706 113 179.346 113 179 113C178.653 113 178.293 113 177.946 113.067C177.8 113.093 177.653 113.133 177.506 113.187C176.573 113.507 175.8 114.227 175.173 114.947C174.013 116.307 173.04 117.467 171.866 118.827C170.12 120.573 167.973 122.507 168.373 125.213C168.76 126.573 169.733 127.92 171.48 128.307C172.453 128.507 175.56 127.72 178.866 127.72H179.106C182.413 127.72 185.52 128.493 186.493 128.307C188.24 127.92 189.213 126.56 189.6 125.213C190.013 122.493 187.866 120.56 186.12 118.813V118.813Z" fill="#F14F68"/>
</svg>
