<svg width="358" height="230" viewBox="0 0 358 230" fill="none" xmlns="http://www.w3.org/2000/svg">
<rect opacity="0.3" width="358" height="230" rx="8" fill="#E6E6E6"/>
<path opacity="0.3" d="M176.107 123L176.894 123.787L179 125.893L181.12 123.773L181.894 123H188.334V104.333H169.667V123H176.107ZM176.494 111.16L179 105.667L181.507 111.16L187 113.667L181.507 116.173L179 121.667L176.494 116.173L171 113.667L176.494 111.16V111.16Z" fill="#F14F68"/>
<path d="M169.667 125.667H175L179 129.667L183 125.667H188.333C189.8 125.667 191 124.467 191 123V104.333C191 102.867 189.8 101.667 188.333 101.667H169.667C168.2 101.667 167 102.867 167 104.333V123C167 124.467 168.2 125.667 169.667 125.667ZM169.667 104.333H188.333V123H181.893L181.107 123.787L179 125.893L176.88 123.773L176.107 123H169.667V104.333ZM179 121.667L181.507 116.173L187 113.667L181.507 111.16L179 105.667L176.493 111.16L171 113.667L176.493 116.173L179 121.667Z" fill="#F14F68"/>
</svg>
