<svg width="358" height="230" viewBox="0 0 358 230" fill="none" xmlns="http://www.w3.org/2000/svg">
<rect opacity="0.3" width="358" height="230" rx="8" fill="#E6E6E6"/>
<path opacity="0.3" d="M178.999 116.733C179.879 116.733 180.586 116.013 180.586 115.133L180.599 106.867C180.599 105.987 179.879 105.267 178.999 105.267C178.119 105.267 177.399 105.987 177.399 106.867V115.133C177.399 116.013 178.119 116.733 178.999 116.733Z" fill="#F14F68"/>
<path d="M179 119C181.214 119 182.987 117.213 182.987 115L183 107C183 104.787 181.214 103 179 103C176.787 103 175 104.787 175 107V115C175 117.213 176.787 119 179 119ZM177.4 106.867C177.4 105.987 178.12 105.267 179 105.267C179.88 105.267 180.6 105.987 180.6 106.867L180.587 115.133C180.587 116.013 179.88 116.733 179 116.733C178.12 116.733 177.4 116.013 177.4 115.133V106.867ZM186.067 115C186.067 119 182.68 121.8 179 121.8C175.32 121.8 171.934 119 171.934 115H169.667C169.667 119.547 173.294 123.307 177.667 123.96V128.333H180.334V123.96C184.707 123.32 188.334 119.56 188.334 115H186.067Z" fill="#F14F68"/>
</svg>
