<svg width="358" height="230" viewBox="0 0 358 230" fill="none" xmlns="http://www.w3.org/2000/svg">
<rect opacity="0.3" width="358" height="230" rx="8" fill="#E6E6E6"/>
<path opacity="0.3" d="M169.667 109.667V125.667H188.334V109.667H169.667ZM179 117.667C175.32 117.667 172.334 114.68 172.334 111H175C175 113.213 176.787 115 179 115C181.214 115 183 113.213 183 111H185.667C185.667 114.68 182.68 117.667 179 117.667Z" fill="#F14F68"/>
<path d="M185.667 107C185.667 103.32 182.68 100.333 179 100.333C175.32 100.333 172.333 103.32 172.333 107H169.667C168.2 107 167 108.2 167 109.667V125.667C167 127.133 168.2 128.333 169.667 128.333H188.333C189.8 128.333 191 127.133 191 125.667V109.667C191 108.2 189.8 107 188.333 107H185.667ZM179 103C181.213 103 183 104.787 183 107H175C175 104.787 176.787 103 179 103ZM188.333 125.667H169.667V109.667H188.333V125.667ZM179 115C176.787 115 175 113.213 175 111H172.333C172.333 114.68 175.32 117.667 179 117.667C182.68 117.667 185.667 114.68 185.667 111H183C183 113.213 181.213 115 179 115Z" fill="#F14F68"/>
</svg>
