<svg width="800" height="400" viewBox="0 0 800 400" fill="none" xmlns="http://www.w3.org/2000/svg">
<rect width="800" height="400" fill="#F2F2F2"/>
<path opacity="0.4" d="M352.428 207.547C352.023 204.188 349.481 202.256 346.114 202.256C342.272 202.256 339.339 204.969 339.339 209.727C339.339 214.472 342.222 217.199 346.114 217.199C349.843 217.199 352.094 214.72 352.428 212.043L349.317 212.028C349.026 213.584 347.805 214.479 346.164 214.479C343.955 214.479 342.456 212.838 342.456 209.727C342.456 206.702 343.934 204.976 346.185 204.976C347.868 204.976 349.083 205.949 349.317 207.547H352.428ZM359.506 217.213C362.815 217.213 364.875 214.947 364.875 211.588C364.875 208.207 362.815 205.949 359.506 205.949C356.196 205.949 354.136 208.207 354.136 211.588C354.136 214.947 356.196 217.213 359.506 217.213ZM359.52 214.869C357.993 214.869 357.211 213.47 357.211 211.567C357.211 209.663 357.993 208.257 359.52 208.257C361.018 208.257 361.8 209.663 361.8 211.567C361.8 213.47 361.018 214.869 359.52 214.869ZM376.642 206.091H373.438L371.18 213.896H371.066L368.801 206.091H365.605L369.419 217H372.828L376.642 206.091ZM382.79 217.213C385.489 217.213 387.307 215.899 387.733 213.875L384.935 213.69C384.63 214.521 383.849 214.955 382.84 214.955C381.327 214.955 380.368 213.953 380.368 212.327V212.32H387.797V211.489C387.797 207.781 385.553 205.949 382.67 205.949C379.459 205.949 377.378 208.229 377.378 211.595C377.378 215.054 379.431 217.213 382.79 217.213ZM380.368 210.445C380.432 209.202 381.377 208.207 382.719 208.207C384.033 208.207 384.942 209.145 384.949 210.445H380.368ZM389.772 217H392.797V210.828C392.805 209.493 393.77 208.577 394.992 208.577C395.404 208.577 395.738 208.69 396.022 208.832L396.931 206.332C396.533 206.091 396.022 205.935 395.439 205.935C394.211 205.935 393.216 206.645 392.819 207.994H392.705V206.091H389.772V217ZM402.975 217H406.001V206.091H402.975V217ZM404.495 204.685C405.397 204.685 406.135 203.996 406.135 203.151C406.135 202.312 405.397 201.624 404.495 201.624C403.6 201.624 402.861 202.312 402.861 203.151C402.861 203.996 403.6 204.685 404.495 204.685ZM408.424 217H411.45V210.452C411.45 209.244 412.217 208.442 413.225 208.442C414.22 208.442 414.887 209.124 414.887 210.196V217H417.82V210.338C417.82 209.209 418.467 208.442 419.568 208.442C420.534 208.442 421.258 209.045 421.258 210.26V217H424.276V209.663C424.276 207.298 422.87 205.949 420.839 205.949C419.241 205.949 417.998 206.766 417.551 208.016H417.437C417.089 206.751 415.974 205.949 414.475 205.949C413.005 205.949 411.89 206.73 411.436 208.016H411.308V206.091H408.424V217ZM429.777 217.206C431.389 217.206 432.433 216.503 432.966 215.487H433.051V217H435.921V209.642C435.921 207.043 433.719 205.949 431.29 205.949C428.676 205.949 426.958 207.199 426.539 209.188L429.337 209.415C429.543 208.69 430.189 208.158 431.276 208.158C432.306 208.158 432.895 208.676 432.895 209.571V209.614C432.895 210.317 432.149 210.409 430.253 210.594C428.094 210.793 426.155 211.517 426.155 213.953C426.155 216.112 427.696 217.206 429.777 217.206ZM430.644 215.118C429.713 215.118 429.046 214.685 429.046 213.854C429.046 213.001 429.749 212.582 430.814 212.433C431.475 212.341 432.554 212.185 432.916 211.943V213.101C432.916 214.244 431.972 215.118 430.644 215.118ZM443.183 221.247C446.301 221.247 448.517 219.827 448.517 217.107V206.091H445.512V207.923H445.399C444.994 207.036 444.106 205.949 442.281 205.949C439.887 205.949 437.863 207.81 437.863 211.524C437.863 215.153 439.83 216.844 442.288 216.844C444.028 216.844 445.001 215.97 445.399 215.068H445.526V217.064C445.526 218.491 444.568 219.074 443.254 219.074C441.919 219.074 441.244 218.491 440.995 217.902L438.197 218.278C438.559 219.926 440.242 221.247 443.183 221.247ZM443.247 214.571C441.762 214.571 440.953 213.392 440.953 211.51C440.953 209.656 441.748 208.357 443.247 208.357C444.717 208.357 445.541 209.599 445.541 211.51C445.541 213.435 444.703 214.571 443.247 214.571ZM455.896 217.213C458.595 217.213 460.413 215.899 460.839 213.875L458.041 213.69C457.735 214.521 456.954 214.955 455.945 214.955C454.433 214.955 453.474 213.953 453.474 212.327V212.32H460.903V211.489C460.903 207.781 458.659 205.949 455.775 205.949C452.565 205.949 450.484 208.229 450.484 211.595C450.484 215.054 452.536 217.213 455.896 217.213ZM453.474 210.445C453.538 209.202 454.482 208.207 455.825 208.207C457.139 208.207 458.048 209.145 458.055 210.445H453.474Z" fill="#333333"/>
</svg>
