<svg width="69" height="26" viewBox="0 0 69 26" fill="none" xmlns="http://www.w3.org/2000/svg">
<rect width="69" height="26" rx="6" fill="#CF3C3C" fill-opacity="0.1"/>
<path d="M16.1213 10.1716L15.4142 9.46448L11.8787 13L15.4142 16.5355L16.1213 15.8284L13.2929 13L16.1213 10.1716Z" fill="#CF3C3C"/>
<path d="M29.826 13.506V18H31.527V7.878H29.826V12.057H24.926V7.878H23.225V18H24.926V13.506H29.826ZM36.5997 18.14C38.7837 18.14 40.0017 16.614 40.0017 14.416C40.0017 12.043 38.6787 10.622 36.6067 10.622C34.4577 10.622 33.1767 12.141 33.1767 14.416C33.1767 16.761 34.5277 18.14 36.5997 18.14ZM36.6067 16.845C35.3187 16.845 34.8567 15.676 34.8567 14.367C34.8567 12.911 35.4167 11.903 36.6067 11.903C37.8737 11.903 38.3357 13.037 38.3357 14.367C38.3357 15.802 37.7757 16.845 36.6067 16.845ZM41.5598 18H43.2608V13.275C43.2608 12.414 44.0238 12.029 44.6608 12.029C45.2628 12.029 45.9558 12.421 45.9558 13.17V18H47.6568V13.275C47.6568 12.351 48.4618 12.029 49.0638 12.029C49.7218 12.029 50.3728 12.365 50.3728 13.443V18H52.0738V13.24C52.0738 11.203 50.7648 10.622 49.7148 10.622C48.7628 10.622 47.9788 11.112 47.5168 11.791C47.1108 11.028 46.2218 10.622 45.4588 10.622C44.3318 10.622 43.6318 11.161 43.2188 11.798V10.762H41.5598V18ZM55.2845 14.773H60.2895V14.255C60.2895 12.071 59.1415 10.622 57.0065 10.622C54.8365 10.622 53.5835 12.239 53.5835 14.458C53.5835 16.733 55.0115 18.14 57.1045 18.14C58.5675 18.14 60.0095 17.3 60.2615 15.788H58.7075C58.5115 16.53 57.8745 16.88 57.0695 16.88C55.9005 16.88 55.2775 16.005 55.2845 14.773ZM55.2775 13.716C55.2775 12.785 55.8725 11.847 56.9995 11.847C58.1335 11.847 58.6795 12.666 58.6795 13.716H55.2775Z" fill="#CF3C3C"/>
</svg>
