<svg width="28" height="28" viewBox="0 0 28 28" fill="none" xmlns="http://www.w3.org/2000/svg">
<path d="M25.6666 4.8335V23.1668C25.6666 24.547 24.5468 25.6668 23.1666 25.6668H18.7239V16.4377H21.8801L22.3333 12.9168H18.7239V10.6668C18.7239 9.646 19.0051 8.95329 20.4687 8.95329H22.3333V5.80745C22.0103 5.76579 20.9062 5.66683 19.6145 5.66683C16.927 5.66683 15.0833 7.30745 15.0833 10.3231V12.922H11.9166V16.4429H15.0885V25.6668H4.83325C3.45304 25.6668 2.33325 24.547 2.33325 23.1668V4.8335C2.33325 3.45329 3.45304 2.3335 4.83325 2.3335H23.1666C24.5468 2.3335 25.6666 3.45329 25.6666 4.8335Z" fill="#1877F2"/>
</svg>
