<svg width="28" height="28" viewBox="0 0 28 28" fill="none" xmlns="http://www.w3.org/2000/svg">
<rect x="2" y="2" width="24" height="24" rx="2" fill="#262626"/>
<path d="M6.5 8.24242C6.5 7.73736 6.67677 7.3207 7.0303 6.99242C7.38383 6.66414 7.84344 6.5 8.40909 6.5C8.96465 6.5 9.41413 6.66161 9.75757 6.98485C10.1111 7.31818 10.2879 7.75251 10.2879 8.28788C10.2879 8.77272 10.1162 9.17675 9.77272 9.5C9.41919 9.83333 8.95454 9.99999 8.37878 9.99999H8.36363C7.80807 9.99999 7.35859 9.83333 7.01515 9.5C6.67171 9.16666 6.5 8.74747 6.5 8.24242ZM6.69697 21.5V11.3788H10.0606V21.5H6.69697ZM11.9242 21.5H15.2879V15.8485C15.2879 15.4949 15.3283 15.2222 15.4091 15.0303C15.5505 14.6869 15.7651 14.3964 16.053 14.1591C16.3409 13.9217 16.702 13.803 17.1363 13.803C18.2677 13.803 18.8333 14.5656 18.8333 16.0909V21.5H22.1969V15.697C22.1969 14.202 21.8434 13.0682 21.1363 12.2954C20.4293 11.5227 19.4949 11.1364 18.3333 11.1364C17.0303 11.1364 16.0151 11.697 15.2879 12.8182V12.8485H15.2727L15.2879 12.8182V11.3788H11.9242C11.9444 11.702 11.9545 12.7071 11.9545 14.3939C11.9545 16.0808 11.9444 18.4495 11.9242 21.5Z" fill="white"/>
</svg>
