<svg width="28" height="28" viewBox="0 0 28 28" fill="none" xmlns="http://www.w3.org/2000/svg">
<rect x="2.33325" y="2.3335" width="23.3333" height="23.3333" rx="2" fill="#1178B3"/>
<path d="M6.70825 8.40252C6.70825 7.91149 6.88011 7.50639 7.22382 7.18724C7.56753 6.86807 8.01437 6.7085 8.56431 6.7085C9.10444 6.7085 9.54144 6.86561 9.87533 7.17988C10.219 7.50395 10.3909 7.92622 10.3909 8.44671C10.3909 8.91809 10.224 9.3109 9.89006 9.62516C9.54636 9.94923 9.09461 10.1113 8.53485 10.1113H8.52012C7.97999 10.1113 7.54299 9.94923 7.20909 9.62516C6.87519 9.30108 6.70825 8.89353 6.70825 8.40252ZM6.89975 21.2918V11.4518H10.1699V21.2918H6.89975ZM11.9818 21.2918H15.252V15.7973C15.252 15.4536 15.2913 15.1884 15.3699 15.0018C15.5073 14.6679 15.716 14.3856 15.9959 14.1548C16.2758 13.924 16.6269 13.8087 17.0491 13.8087C18.149 13.8087 18.699 14.5501 18.699 16.033V21.2918H21.9692V15.65C21.9692 14.1966 21.6255 13.0942 20.938 12.343C20.2506 11.5917 19.3422 11.2161 18.2129 11.2161C16.946 11.2161 15.9591 11.7611 15.252 12.8512V12.8806H15.2373L15.252 12.8512V11.4518H11.9818C12.0014 11.766 12.0113 12.7431 12.0113 14.3831C12.0113 16.0232 12.0014 18.326 11.9818 21.2918Z" fill="white"/>
</svg>
