<svg width="28" height="28" viewBox="0 0 28 28" fill="none" xmlns="http://www.w3.org/2000/svg">
<rect x="2" y="2" width="24" height="24" rx="3" fill="#262626"/>
<path d="M21 11.2256V16.925C21 18.1381 20.0505 19.1295 18.8541 19.1964L18.725 19.2H9.275C8.06188 19.2 7.07053 18.2505 7.0036 17.0541L7 16.925V11.2256L13.7564 14.7651C13.909 14.845 14.091 14.845 14.2436 14.7651L21 11.2256ZM9.275 8H18.725C19.9043 8 20.8741 8.89734 20.9887 10.0465L14 13.7073L7.01133 10.0465C7.1217 8.9399 8.02502 8.06681 9.14486 8.00366L9.275 8H18.725H9.275Z" fill="white"/>
</svg>
