<svg width="28" height="28" viewBox="0 0 28 28" fill="none" xmlns="http://www.w3.org/2000/svg">
<path d="M23.8182 2H4.18182C2.97636 2 2 2.97636 2 4.18182V23.8182C2 25.0236 2.97636 26 4.18182 26H23.8182C25.0236 26 26 25.0236 26 23.8182V4.18182C26 2.97636 25.0236 2 23.8182 2ZM22.2276 20.5455H15.7575V20.1822L17.2727 18.8491V11.24L13.5516 20.5455H12.9702L8.81818 11.1669V17.8073L10.7164 20.1822V20.5455H5.77236V20.1822L7.73491 17.8073V9.90691L5.99055 7.72618C5.99055 7.72618 5.99055 7.41091 5.99055 7.46H10.7644L14.4724 15.4815L17.6709 7.46H22.2025V7.72618L20.5455 9.11927V18.8491L22.2276 20.1822V20.5455Z" fill="#262626"/>
</svg>
