<svg width="28" height="28" viewBox="0 0 28 28" fill="none" xmlns="http://www.w3.org/2000/svg">
<path d="M23.4286 2H4.57143C3.15179 2 2 3.15179 2 4.57143V23.4286C2 24.8482 3.15179 26 4.57143 26H23.4286C24.8482 26 26 24.8482 26 23.4286V4.57143C26 3.15179 24.8482 2 23.4286 2ZM20.8089 10.5071C20.8196 10.6571 20.8196 10.8125 20.8196 10.9625C20.8196 15.6071 17.2839 20.9589 10.8232 20.9589C8.83036 20.9589 6.98214 20.3804 5.42857 19.3839C5.7125 19.4161 5.98571 19.4268 6.275 19.4268C7.91964 19.4268 9.43036 18.8696 10.6357 17.9268C9.09286 17.8946 7.79643 16.8821 7.35179 15.4893C7.89286 15.5696 8.38036 15.5696 8.9375 15.425C7.33036 15.0982 6.125 13.6839 6.125 11.975V11.9321C6.59107 12.1946 7.1375 12.3554 7.71071 12.3768C7.2288 12.0562 6.83374 11.6214 6.56079 11.111C6.28784 10.6006 6.14548 10.0306 6.14643 9.45179C6.14643 8.79821 6.31786 8.19821 6.62321 7.67857C8.35357 9.81071 10.9518 11.2036 13.8661 11.3536C13.3679 8.96964 15.1518 7.03571 17.2946 7.03571C18.3071 7.03571 19.2179 7.45893 19.8607 8.14464C20.6536 7.99464 21.4143 7.7 22.0893 7.29821C21.8268 8.1125 21.275 8.79821 20.5464 9.23214C21.2536 9.15714 21.9393 8.95893 22.5714 8.68571C22.0946 9.3875 21.4946 10.0089 20.8089 10.5071Z" fill="#262626"/>
</svg>
