<svg width="28" height="28" viewBox="0 0 28 28" fill="none" xmlns="http://www.w3.org/2000/svg">
<path d="M23.1666 2.3335H4.83325C3.45304 2.3335 2.33325 3.45329 2.33325 4.8335V23.1668C2.33325 24.547 3.45304 25.6668 4.83325 25.6668H23.1666C24.5468 25.6668 25.6666 24.547 25.6666 23.1668V4.8335C25.6666 3.45329 24.5468 2.3335 23.1666 2.3335ZM20.6197 10.6043C20.6301 10.7502 20.6301 10.9012 20.6301 11.047C20.6301 15.5627 17.1926 20.7658 10.9114 20.7658C8.97388 20.7658 7.177 20.2033 5.66659 19.2345C5.94263 19.2658 6.20825 19.2762 6.4895 19.2762C8.08846 19.2762 9.55721 18.7345 10.7291 17.8179C9.22909 17.7866 7.96867 16.8022 7.53638 15.4481C8.06242 15.5262 8.53638 15.5262 9.07804 15.3856C7.51554 15.0679 6.34367 13.6929 6.34367 12.0314V11.9897C6.79679 12.245 7.32804 12.4012 7.88534 12.422C7.41681 12.1104 7.03272 11.6876 6.76735 11.1914C6.50198 10.6952 6.36358 10.141 6.3645 9.57829C6.3645 8.94287 6.53117 8.35954 6.82804 7.85433C8.51034 9.92725 11.0364 11.2814 13.8697 11.4272C13.3853 9.10954 15.1197 7.22933 17.203 7.22933C18.1874 7.22933 19.0728 7.64079 19.6978 8.30745C20.4687 8.16162 21.2083 7.87516 21.8645 7.48454C21.6093 8.2762 21.0728 8.94287 20.3645 9.36475C21.052 9.29183 21.7187 9.09912 22.3333 8.8335C21.8697 9.51579 21.2864 10.12 20.6197 10.6043Z" fill="#55ADEE"/>
</svg>
